<svg width="19" height="19" viewBox="0 0 19 19" fill="none" xmlns="http://www.w3.org/2000/svg">
<rect x="11" y="7" width="1" height="1" fill="white"/>
<rect x="12" y="6" width="1" height="1" fill="white"/>
<rect x="13" y="5" width="1" height="1" fill="white"/>
<rect x="16" y="2" width="1" height="1" fill="white"/>
<rect x="10" y="8" width="1" height="1" fill="white"/>
<rect x="9" y="9" width="1" height="1" fill="white"/>
<rect x="8" y="10" width="1" height="1" fill="white"/>
<rect x="7" y="11" width="1" height="1" fill="white"/>
<rect x="6" y="12" width="1" height="1" fill="white"/>
<rect x="5" y="13" width="1" height="1" fill="white"/>
<rect x="2" y="16" width="1" height="1" fill="white"/>
<rect x="10" y="10" width="1" height="1" fill="white"/>
<rect x="11" y="11" width="1" height="1" fill="white"/>
<rect x="12" y="12" width="1" height="1" fill="white"/>
<rect x="13" y="13" width="1" height="1" fill="white"/>
<rect x="16" y="16" width="1" height="1" fill="white"/>
<rect x="14" y="14" width="1" height="1" fill="white"/>
<rect x="17" y="17" width="1" height="1" fill="white"/>
<rect x="15" y="15" width="1" height="1" fill="white"/>
<rect x="18" y="18" width="1" height="1" fill="white"/>
<rect x="15" y="3" width="1" height="1" fill="white"/>
<rect x="18" width="1" height="1" fill="white"/>
<rect x="14" y="4" width="1" height="1" fill="white"/>
<rect x="17" y="1" width="1" height="1" fill="white"/>
<rect x="4" y="4" width="1" height="1" fill="white"/>
<rect x="1" y="1" width="1" height="1" fill="white"/>
<rect x="3" y="3" width="1" height="1" fill="white"/>
<rect width="1" height="1" fill="white"/>
<rect x="3" y="15" width="1" height="1" fill="white"/>
<rect y="18" width="1" height="1" fill="white"/>
<rect x="4" y="14" width="1" height="1" fill="white"/>
<rect x="1" y="17" width="1" height="1" fill="white"/>
<rect x="8" y="8" width="1" height="1" fill="white"/>
<rect x="7" y="7" width="1" height="1" fill="white"/>
<rect x="6" y="6" width="1" height="1" fill="white"/>
<rect x="5" y="5" width="1" height="1" fill="white"/>
<rect x="2" y="2" width="1" height="1" fill="white"/>
</svg>
