<svg width="251" height="96" viewBox="0 0 251 96" fill="none" xmlns="http://www.w3.org/2000/svg">
<path d="M36.4022 34.5091H27.8099L25.1761 28.17H10.8456L8.45212 34.5091H0L12.9185 2.47314H22.1718L36.4022 34.5091ZM17.6653 10.1341L12.9686 22.582H22.8327L17.6653 10.1341Z" fill="black"/>
<path d="M67.6269 2.47314H74.5769V34.5091H66.5954V14.5004L57.953 24.5548H56.7313L48.0889 14.5004V34.5091H40.1074V2.47314H47.0574L57.3421 14.3602L67.6269 2.47314Z" fill="black"/>
<path d="M94.8161 2.47314C106.513 2.47314 112.521 9.75359 112.521 18.5362C112.521 27.3188 106.693 34.5091 93.9248 34.5091H80.6758V2.47314H94.8161ZM88.6672 28.6407H93.8847C101.916 28.6407 104.31 23.1929 104.31 18.4961C104.31 12.9982 101.345 8.35157 93.7846 8.35157H88.6672V28.6407Z" fill="black"/>
<path d="M144.938 10.0745H128.414L118.35 0H155.002V36.6626L144.938 26.5881V10.0745Z" fill="black"/>
<path d="M128.404 26.5982V12.0874L118.039 22.4523V36.9731H132.55L142.915 26.5982H128.404Z" fill="black"/>
<path d="M101.716 61.8183H130.687L101.716 86.7641V95.1661H143.376V86.8342H114.414L143.376 61.8884V53.4863H101.716V61.8183Z" fill="black"/>
<path d="M71.0319 70.02L59.1048 53.4863H48.8101L66.8259 78.4922V95.1661H75.1579V78.4922L93.2638 53.4863H82.969L71.0319 70.02Z" fill="black"/>
<path d="M196.672 53.4863H155.012V61.8283H196.672V53.4863Z" fill="black"/>
<path d="M155.012 70.1606V95.1665H196.682V86.8346H163.354V78.4926H196.682V70.1606H155.012Z" fill="black"/>
<path d="M8.34196 78.4927H23.724L33.3478 95.1666H42.9716L33.3478 78.4927C37.9544 78.4927 41.6898 74.7573 41.6898 70.1507V61.8088C41.6898 57.2022 37.9544 53.4668 33.3478 53.4668H0V61.8088H32.757C33.0875 61.8088 33.3478 62.0691 33.3478 62.3996V69.5499C33.3478 69.8803 33.0875 70.1407 32.757 70.1407H0V95.1566H8.34196V78.4827V78.4927Z" fill="black"/>
<path d="M242.668 53.4966V82.4681L217.722 53.4966H209.33V95.1563H217.652V66.1848L242.608 95.1563H251V53.4966H242.668Z" fill="black"/>
</svg>
