<svg width="154" height="88" viewBox="0 0 154 88" fill="none" xmlns="http://www.w3.org/2000/svg">
<path d="M85.1149 7.18122C85.1149 11.1446 81.8971 14.3624 77.9337 14.3624C73.9703 14.3624 70.7524 11.1446 70.7524 7.18122C70.7524 3.21781 73.9703 0 77.9337 0C81.8971 0 85.1149 3.21781 85.1149 7.18122Z" fill="#F5333F"/>
<path d="M11.6155 87.4303H22.407V12.0079H33.9048V1.92285H0V12.0079H11.6155V87.4303Z" fill="white"/>
<path d="M57.4104 18.2079C55.6838 18.2079 51.4457 18.6788 49.4836 22.9561L49.3659 23.1916H48.2671V1.76562H38.1035V87.5086H48.0709V31.2361C48.0709 29.117 49.1304 26.841 52.0735 26.841C54.5065 26.841 55.8407 28.4499 55.8407 31.3146V87.5086H65.8081V28.9601C65.8081 21.6611 64.5524 18.2079 57.4104 18.2079Z" fill="white"/>
<path d="M83.1921 19.1106H72.9893V87.5872H83.1921V19.1106Z" fill="white"/>
<path d="M109.523 18.3652C106.07 18.3652 102.931 20.2095 101.596 23.0349L101.479 23.2704H100.38V19.1892H90.2163V87.6659H100.066V31.9035C100.066 30.7655 100.38 26.9983 104.304 26.9983C106.698 26.9983 107.914 28.6465 107.914 31.9035V87.6659H117.882V29.9414C117.882 26.4489 117.882 23.4666 116.822 21.426C115.684 19.2677 113.447 18.3259 109.484 18.3259L109.523 18.3652Z" fill="white"/>
<path d="M146.45 50.1116V50.0331L153.003 19.1499H143.036L136.718 51.0534H134.952V1.92285H124.984V87.6658H134.952V51.1711H136.718L143.153 87.6658H153.67L146.45 50.1116Z" fill="white"/>
</svg>
