<?xml version="1.0" encoding="utf-8"?>
<!-- Generator: Adobe Illustrator 27.2.0, SVG Export Plug-In . SVG Version: 6.00 Build 0)  -->
<svg version="1.1" id="Layer_1" xmlns="http://www.w3.org/2000/svg" xmlns:xlink="http://www.w3.org/1999/xlink" x="0px" y="0px"
	 viewBox="0 0 39 30" style="enable-background:new 0 0 39 30;" xml:space="preserve">
<style type="text/css">
	.st0{fill:#FFFFFF;}
</style>
<path class="st0" d="M13.5,27.3c-0.8,0-1.5-0.1-2.2-0.2c-0.5-0.1-0.8-0.5-0.7-1c0.1-0.5,0.5-0.8,1-0.7c0.7,0.1,1.3,0.1,2,0.1
	c6.4,0,11.6-4.1,11.6-9.2s-5.2-9.2-11.6-9.2c-6.4,0-11.6,4.1-11.6,9.2c0,2.7,1.5,5.3,4.2,7.1c0.4,0.3,0.5,0.8,0.3,1.2
	c-0.3,0.4-0.8,0.5-1.2,0.3c-3.2-2.1-5-5.2-5-8.5c0-6,6-10.9,13.3-10.9s13.3,4.9,13.3,10.9S20.9,27.3,13.5,27.3z"/>
<path class="st0" d="M2,29.8c-0.4,0-0.7-0.2-0.8-0.6c-0.1-0.3,0-0.7,0.3-1c1.7-1.5,3.4-4.5,3.4-4.5c0.2-0.4,0.8-0.6,1.2-0.3
	c0.4,0.2,0.6,0.8,0.3,1.2c-0.1,0.1-1,1.8-2.2,3.3c2-0.3,4.8-0.9,6.9-2.3c0.4-0.3,0.9-0.2,1.2,0.2c0.3,0.4,0.2,0.9-0.2,1.2
	C8.2,29.8,2.3,29.8,2,29.8C2,29.8,2,29.8,2,29.8z"/>
<g>
	<path class="st0" d="M33.1,20.2c-0.3,0-0.6-0.1-0.7-0.4c-0.3-0.4-0.1-0.9,0.3-1.2c2.7-1.8,4.2-4.3,4.2-7.1c0-5.1-5.2-9.2-11.6-9.2
		c-2.8,0-5.6,0.8-7.7,2.3c-0.4,0.3-0.9,0.2-1.2-0.2c-0.3-0.4-0.2-0.9,0.2-1.2c2.4-1.7,5.5-2.6,8.7-2.6c7.4,0,13.3,4.9,13.3,10.9
		c0,3.3-1.8,6.4-5,8.5C33.4,20.2,33.2,20.2,33.1,20.2z"/>
	<path class="st0" d="M36.7,25C36.7,25,36.7,25,36.7,25c-0.3,0-6.2-0.1-10.1-2.8c-0.4-0.3-0.5-0.8-0.2-1.2c0.3-0.4,0.8-0.5,1.2-0.2
		c2.1,1.5,4.9,2.1,6.9,2.3c-1.2-1.6-2.2-3.2-2.2-3.3c-0.2-0.4-0.1-0.9,0.3-1.2c0.4-0.2,0.9-0.1,1.2,0.3c0,0,1.7,3.1,3.4,4.5
		c0.3,0.2,0.4,0.6,0.3,1C37.4,24.8,37.1,25,36.7,25z"/>
</g>
<circle class="st0" cx="7.8" cy="16.2" r="1.4"/>
<circle class="st0" cx="13.5" cy="16.2" r="1.4"/>
<circle class="st0" cx="19.3" cy="16.2" r="1.4"/>
</svg>
