<svg width="390" height="89" viewBox="0 0 390 89" fill="none" xmlns="http://www.w3.org/2000/svg">
<path d="M309.499 41.7138L308.321 41.3607L309.499 40.9683C318.72 37.7897 324.018 30.7262 324.018 21.5436C324.018 8.43695 314.011 0 298.511 0C283.01 0 273.357 8.86861 273.357 22.0538V22.1323H276.85V22.0538C277.085 10.4775 285.365 3.25705 298.511 3.25705C311.657 3.25705 320.408 10.4383 320.408 21.5829C320.408 32.7275 311.853 40.0265 298.04 40.0265H293.174V43.1658H298.158C314.247 43.1658 323.861 51.1318 323.861 64.474C323.861 77.8161 314.09 85.7822 298.982 85.7822C283.874 85.7822 274.338 77.8161 274.103 64.9449V64.8664H270.61V64.9449C270.61 79.582 281.755 89 298.982 89C316.209 89 327.589 79.1504 327.589 64.474C327.589 53.5256 320.839 45.0494 309.499 41.7531V41.7138Z" fill="white"/>
<path d="M360.826 0C342.304 0 332.102 15.8144 332.102 44.4608C332.102 73.1071 342.304 88.9215 360.826 88.9215C379.348 88.9215 389.551 73.1071 389.551 44.4608C389.551 15.8144 379.348 0 360.826 0ZM360.826 85.7037C344.62 85.7037 335.712 71.0666 335.712 44.4608C335.712 17.8549 344.62 3.21781 360.826 3.21781C377.033 3.21781 385.941 17.8549 385.941 44.4608C385.941 71.0666 377.033 85.7037 360.826 85.7037Z" fill="white"/>
<path d="M85.1151 7.18122C85.1151 11.1446 81.8973 14.3624 77.9339 14.3624C73.9705 14.3624 70.7527 11.1446 70.7527 7.18122C70.7527 3.21781 73.9705 0 77.9339 0C81.8973 0 85.1151 3.21781 85.1151 7.18122Z" fill="#F5333F"/>
<path d="M173.095 2.04071H158.301V87.7052H169.406V50.2687H173.095C180.08 50.2687 185.613 43.0482 185.888 36.6126V14.4018C185.495 8.59406 180.865 2.23691 173.056 2.00146L173.095 2.04071ZM175.842 37.5936C175.842 41.5178 172.506 41.5178 169.838 41.5178H169.445V11.1448H171.486C175.175 11.1448 175.842 13.9309 175.842 19.0323V37.5936Z" fill="white"/>
<path d="M204.606 18.2866C195.894 18.2866 190.675 22.4855 190.675 29.549V42.6557H201.113V33.2377C201.113 32.9237 201.113 32.5706 201.113 32.2566C201.153 29.3528 201.231 25.4286 204.684 25.4286C205.43 25.4286 206.019 25.664 206.49 26.1742C207.824 27.5476 207.785 30.5692 207.706 32.5313C207.706 32.8453 207.706 33.1592 207.706 33.4339C207.706 42.8126 202.644 45.4026 198.17 47.7178C194.128 49.7976 190.597 51.6028 190.597 57.7245V80.9947C190.597 86.0569 193.108 88.6076 198.053 88.6076C202.055 88.6076 204.057 87.3519 206.607 83.1923L206.725 82.9961H208.02V83.6632C208.02 85.0366 208.02 86.4886 208.569 87.7443H218.184V29.549C218.184 22.6032 212.964 18.2866 204.527 18.2866H204.606ZM208.098 76.4819C208.098 77.306 207.745 78.1301 207.117 78.7972C206.411 79.5036 205.391 79.9352 204.41 79.9352C202.487 79.9352 201.231 78.8757 200.956 76.9921V58.9017C200.956 55.0953 204.37 52.9762 207.51 51.2888L208.098 50.9749V76.4819Z" fill="white"/>
<path d="M241.414 23.3096C239.845 20.7589 236.627 18.2082 233.017 18.2082C229.053 18.2082 225.011 20.4449 225.011 25.4286V80.7201C224.972 83.1138 225.6 84.9974 226.934 86.3709C228.308 87.7836 230.466 88.5684 233.017 88.5684C235.842 88.5684 239.374 86.0569 240.983 83.7024L241.101 83.5455H242.435V87.7051H252.677V1.80518H242.435V23.5058H241.532L241.414 23.3096ZM242.396 75.2262C242.239 79.3859 240.394 79.9352 238.628 79.9352C237.726 79.9352 236.941 79.6213 236.392 79.0719C235.607 78.2871 235.214 76.9921 235.254 75.2262V31.3541C235.254 28.411 236.392 26.9198 238.668 26.9198C240.433 26.9198 242.278 27.4692 242.435 31.3934V75.187L242.396 75.2262Z" fill="white"/>
<path d="M11.6155 87.4303H22.407V12.0079H33.9048V1.92285H0V12.0079H11.6155V87.4303Z" fill="white"/>
<path d="M57.4104 18.2079C55.6838 18.2079 51.4457 18.6788 49.4836 22.9561L49.3659 23.1916H48.2671V1.76562H38.1035V87.5086H48.0709V31.2361C48.0709 29.117 49.1304 26.841 52.0735 26.841C54.5065 26.841 55.8407 28.4499 55.8407 31.3146V87.5086H65.8081V28.9601C65.8081 21.6611 64.5524 18.2079 57.4104 18.2079Z" fill="white"/>
<path d="M83.1923 19.1106H72.9895V87.5872H83.1923V19.1106Z" fill="white"/>
<path d="M109.523 18.3652C106.07 18.3652 102.931 20.2095 101.597 23.0349L101.479 23.2704H100.38V19.1892H90.2166V87.6659H100.066V31.9035C100.066 30.7655 100.38 26.9983 104.304 26.9983C106.698 26.9983 107.915 28.6465 107.915 31.9035V87.6659H117.882V29.9414C117.882 26.4489 117.882 23.4666 116.822 21.426C115.684 19.2677 113.448 18.3259 109.484 18.3259L109.523 18.3652Z" fill="white"/>
<path d="M146.45 50.1116V50.0331L153.003 19.1499H143.036L136.718 51.0534H134.952V1.92285H124.985V87.6658H134.952V51.1711H136.718L143.153 87.6658H153.67L146.45 50.1116Z" fill="white"/>
</svg>
