<svg width="521" height="76" viewBox="0 0 521 76" fill="none" xmlns="http://www.w3.org/2000/svg">
<path d="M22.5722 74.4967H37.9542V15.3821H60.5264V1.26416H0V15.3821H22.5722V74.4967Z" fill="white"/>
<path d="M82.5898 1.26416H67.2079V74.4967H82.5898V44.7342H113.616V74.4967H128.998V1.26416H113.616V30.6163H82.5898V1.26416Z" fill="white"/>
<path d="M156.955 1.26416H141.573V74.4967H156.955V1.26416Z" fill="white"/>
<path d="M169.366 1.26416V74.4967H184.551V26.4466L221.159 74.4967H234.341V1.26416H219.156V47.8532L183.713 1.26416H169.366Z" fill="white"/>
<path d="M311.152 1.26416H292.733L261.986 34.4084V1.26416H246.587V74.4967H261.986V52.105L271.08 42.6821L271.409 43.1254L294.26 74.4967H312.695L281.439 32.225L311.152 1.26416Z" fill="white"/>
<path d="M373.878 0C351.979 0 334.824 16.646 334.824 37.8885V38.1019C334.824 59.5743 351.519 75.777 373.665 75.777C395.81 75.777 412.719 59.131 412.719 37.8885V37.6751C412.719 16.2028 396.024 0 373.878 0ZM396.582 38.1019C396.582 51.5304 386.814 61.6591 373.878 61.6591C360.942 61.6591 350.945 51.2184 350.945 37.8885V37.6751C350.945 24.2467 360.713 14.1179 373.665 14.1179C386.617 14.1179 396.582 24.5586 396.582 37.8885V38.1019Z" fill="white"/>
<path d="M421.009 1.26416V74.4967H436.178V26.4466L472.786 74.4967H485.968V1.26416H470.799V47.8532L435.357 1.26416H421.009Z" fill="white"/>
<path d="M521 63.3005C521 69.7356 515.78 74.9724 509.345 74.9724C502.909 74.9724 497.689 69.7521 497.689 63.3005C497.689 56.8489 502.909 51.645 509.345 51.645C515.78 51.645 521 56.8654 521 63.3005Z" fill="#EA0029"/>
</svg>
