<svg width="94" height="33" viewBox="0 0 94 33" fill="none" xmlns="http://www.w3.org/2000/svg">
<path d="M31.6644 2.67153C31.6644 4.14599 30.4673 5.34307 28.9928 5.34307C27.5184 5.34307 26.3213 4.14599 26.3213 2.67153C26.3213 1.19708 27.5184 0 28.9928 0C30.4673 0 31.6644 1.19708 31.6644 2.67153Z" fill="#F5333F"/>
<path d="M64.3943 0.744141H58.8906V32.6128H63.022V18.6858H64.3943C66.9928 18.6858 69.0512 15.9996 69.1534 13.6055V5.35728C69.0074 3.1967 67.2848 0.831732 64.3797 0.744141H64.3943ZM65.4162 13.9704C65.4162 15.4303 64.1753 15.4303 63.1826 15.4303H63.0366V4.131H63.7957C65.168 4.131 65.4162 5.1675 65.4162 7.06531V13.9704Z" fill="white"/>
<path d="M76.1167 6.80268C72.8758 6.80268 70.9342 8.36473 70.9342 10.9925V15.8684H74.8174V12.3647C74.8174 12.2479 74.8174 12.1166 74.8174 11.9998C74.832 10.9195 74.8612 9.45962 76.1459 9.45962C76.4233 9.45962 76.6423 9.54721 76.8174 9.73699C77.3138 10.2479 77.2992 11.372 77.27 12.102C77.27 12.2187 77.27 12.3355 77.27 12.4377C77.27 15.9268 75.3868 16.8903 73.7226 17.7516C72.2189 18.5253 70.905 19.1969 70.905 21.4742V30.1312C70.905 32.0144 71.8393 32.9633 73.6788 32.9633C75.1678 32.9633 75.9123 32.4961 76.8612 30.9487L76.905 30.8757H77.3868V31.1239C77.3868 31.6348 77.3868 32.175 77.5912 32.6421H81.1678V10.9779C81.1678 8.39393 79.2262 6.78809 76.0875 6.78809L76.1167 6.80268ZM77.416 28.4523C77.416 28.7589 77.2846 29.0655 77.051 29.3136C76.7882 29.5764 76.4087 29.737 76.0437 29.737C75.3284 29.737 74.8612 29.3428 74.759 28.6421V21.9122C74.759 20.4961 76.0291 19.7078 77.197 19.0801L77.416 18.9633V28.4523Z" fill="white"/>
<path d="M89.8104 8.65723C89.2264 7.70833 88.0293 6.75942 86.6863 6.75942C85.2118 6.75942 83.7082 7.59154 83.7082 9.44555V30.0149C83.6936 30.9054 83.9271 31.6061 84.4235 32.1171C84.9344 32.6426 85.7374 32.9346 86.6863 32.9346C87.7374 32.9346 89.0512 32.0003 89.6498 31.1244L89.6936 31.066H90.1899V32.6134H94.0001V0.657227H90.1899V8.73022H89.8542L89.8104 8.65723ZM90.1753 27.9711C90.1169 29.5186 89.4308 29.7229 88.7739 29.7229C88.4381 29.7229 88.1461 29.6061 87.9417 29.4018C87.6498 29.1098 87.5038 28.628 87.5184 27.9711V11.6645C87.5184 10.5696 87.9417 10.0149 88.7885 10.0149C89.4454 10.0149 90.1315 10.2193 90.1899 11.6791V27.9711H90.1753Z" fill="white"/>
<path d="M4.32117 32.511H8.33577V4.45256H12.6131V0.715332H0V4.45256H4.32117V32.511Z" fill="white"/>
<path d="M21.3578 6.77402C20.7154 6.77402 19.1388 6.9492 18.4089 8.54044L18.3651 8.62803H17.9563V0.657227H14.1753V32.5551H17.8833V11.6061C17.8833 10.8178 18.2775 9.9711 19.3724 9.9711C20.2775 9.9711 20.7738 10.5696 20.7738 11.6353V32.5405H24.4819V10.774C24.4819 8.05869 24.0147 6.77402 21.3578 6.77402Z" fill="white"/>
<path d="M30.9489 7.09473H27.1533V32.5692H30.9489V7.09473Z" fill="white"/>
<path d="M40.7445 6.83198C39.4598 6.83198 38.2919 7.51811 37.7956 8.56921L37.7518 8.6568H37.343V7.13855H33.562V32.613H37.2262V11.8685C37.2262 11.4451 37.343 10.0437 38.8029 10.0437C39.6934 10.0437 40.146 10.6568 40.146 11.8685V32.613H43.854V11.1386C43.854 9.83928 43.854 8.72979 43.4598 7.97067C43.0365 7.16775 42.2044 6.81738 40.7299 6.81738L40.7445 6.83198Z" fill="white"/>
<path d="M54.4817 18.6277V18.5985L56.9197 7.10945H53.2117L50.8613 18.9927H50.2044V0.700684H46.4963V32.6131H50.2044V19.0365H50.8613L53.2555 32.6131H57.1679L54.4817 18.6277Z" fill="white"/>
</svg>
